<svg xmlns="http://www.w3.org/2000/svg" viewBox="0 0 500 500">
<defs>
<linearGradient id="grad" x1="0%" y1="0%" x2="100%" y2="100%">
<stop offset="0%" style="stop-color:#8a2be2"/>
<stop offset="100%" style="stop-color:#00bfff"/>
</linearGradient>
</defs>
<path d="M 355,246 342,231 327,220 309,211 255,193 247,192 247,194 266,212 277,225 288,245 291,254 292,271 291,282 285,296 272,311 254,321 239,324 197,325 181,330 168,337 157,345 143,360 129,384 127,394 248,395 280,389 310,376 322,368 340,351 353,332 360,317 365,298 365,272 361,257 Z" fill="url(#grad)"/>
<path d="M 378,92 252,92 219,100 193,113 177,125 157,147 148,163 143,176 139,199 140,215 144,230 152,245 166,260 189,274 252,295 253,293 226,263 220,254 213,237 211,215 215,198 220,189 235,174 254,165 268,163 303,163 321,158 332,153 351,139 361,128 374,107 378,97 Z" fill="url(#grad)"/>
</svg>